name Walk4_EMG.mot
datacolumns 17
datarows 33
range 2.06600000 2.09800000
endheader
                time	            vasmed_r	            vaslat_r	            recfem_r	               gra_r	               sar_r	            tibant_r	           perlong_r	            addmag_r	           semimem_r	          bicfemlh_r	            gasmed_r	            gaslat_r	               sol_r	               tfl_r	              gmed_r	              gmax_r	
          2.06600000	          0.08052113	          0.09048857	          0.12670003	          0.40352707	          0.37757054	          0.03008781	          0.01433020	          0.34782126	          0.71615856	          0.21366597	          0.10763795	          0.06775996	          0.03204099	          0.15443140	          0.10162668	          0.17631525	
          2.06700000	          0.08059935	          0.09038687	          0.12679852	          0.40290980	          0.38525390	          0.03164892	          0.01400627	          0.35822041	          0.71256940	          0.21558166	          0.09847876	          0.06723103	          0.03160568	          0.15512086	          0.10133455	          0.17537323	
          2.06800000	          0.08069236	          0.09031950	          0.12695103	          0.40243639	          0.39239418	          0.03316463	          0.01369248	          0.36861243	          0.70874634	          0.21739001	          0.08998259	          0.06670103	          0.03119709	          0.15577431	          0.10108362	          0.17446681	
          2.06900000	          0.08079988	          0.09029250	          0.12715548	          0.40211592	          0.39895782	          0.03463347	          0.01339029	          0.37894270	          0.70473256	          0.21909196	          0.08214131	          0.06617050	          0.03081701	          0.15639112	          0.10087845	          0.17360065	
          2.07000000	          0.08092106	          0.09031210	          0.12740892	          0.40196076	          0.40491533	          0.03605464	          0.01310116	          0.38915772	          0.70057395	          0.22068774	          0.07494455	          0.06563976	          0.03046676	          0.15697313	          0.10072453	          0.17277752	
          2.07100000	          0.08105493	          0.09038376	          0.12770751	          0.40198428	          0.41024138	          0.03742791	          0.01282656	          0.39920521	          0.69631706	          0.22217704	          0.06837962	          0.06510918	          0.03014715	          0.15752311	          0.10062714	          0.17199903	
          2.07200000	          0.08120092	          0.09051140	          0.12804653	          0.40219961	          0.41491475	          0.03875379	          0.01256827	          0.40903430	          0.69200640	          0.22355908	          0.06243179	          0.06457940	          0.02985870	          0.15804319	          0.10059016	          0.17126744	
          2.07300000	          0.08135888	          0.09069745	          0.12842053	          0.40262074	          0.41891833	          0.04003401	          0.01232843	          0.41859686	          0.68768471	          0.22483236	          0.05708478	          0.06405122	          0.02960192	          0.15853413	          0.10061601	          0.17058739	
          2.07400000	          0.08152862	          0.09094332	          0.12882372	          0.40326133	          0.42223899	          0.04127145	          0.01210941	          0.42784839	          0.68339740	          0.22599482	          0.05232103	          0.06352515	          0.02937786	          0.15899545	          0.10070648	          0.16996552	
          2.07500000	          0.08170956	          0.09124954	          0.12925042	          0.40413125	          0.42486750	          0.04246986	          0.01191357	          0.43674752	          0.67919512	          0.22704435	          0.04812161	          0.06300132	          0.02918810	          0.15942612	          0.10086358	          0.16940876	
          2.07600000	          0.08190061	          0.09161572	          0.12969549	          0.40523584	          0.42679912	          0.04363336	          0.01174314	          0.44525476	          0.67513188	          0.22797938	          0.04446602	          0.06247961	          0.02903442	          0.15982543	          0.10109007	          0.16892331	
          2.07700000	          0.08210022	          0.09204034	          0.13015429	          0.40657892	          0.42803674	          0.04476609	          0.01159997	          0.45333211	          0.67126143	          0.22879880	          0.04133215	          0.06196004	          0.02891826	          0.16019345	          0.10138963	          0.16851433	
          2.07800000	          0.08230647	          0.09252086	          0.13062256	          0.40816689	          0.42859624	          0.04587184	          0.01148562	          0.46094310	          0.66763376	          0.22950138	          0.03869656	          0.06144298	          0.02884044	          0.16053056	          0.10176697	          0.16818602	
          2.07900000	          0.08251728	          0.09305409	          0.13109643	          0.41001026	          0.42850869	          0.04695373	          0.01140178	          0.46805308	          0.66429441	          0.23008578	          0.03653483	          0.06092929	          0.02880113	          0.16083653	          0.10222761	          0.16794133	
          2.08000000	          0.08273050	          0.09363669	          0.13157235	          0.41212247	          0.42781687	          0.04801417	          0.01135069	          0.47463013	          0.66128722	          0.23055083	          0.03482198	          0.06042022	          0.02879988	          0.16111042	          0.10277706	          0.16778147	
          2.08100000	          0.08294395	          0.09426576	          0.13204703	          0.41451951	          0.42656983	          0.04905507	          0.01133507	          0.48064613	          0.65865609	          0.23089526	          0.03353300	          0.05991737	          0.02883567	          0.16135115	          0.10341932	          0.16770675	
          2.08200000	          0.08315532	          0.09493887	          0.13251809	          0.41722005	          0.42481850	          0.05007826	          0.01135761	          0.48607747	          0.65644177	          0.23111727	          0.03264307	          0.05942271	          0.02890701	          0.16155822	          0.10415571	          0.16771899	
          2.08300000	          0.08336231	          0.09565365	          0.13298462	          0.42024195	          0.42261233	          0.05108585	          0.01142056	          0.49090508	          0.65467657	          0.23121451	          0.03212741	          0.05893841	          0.02901210	          0.16173199	          0.10498470	          0.16782270	
          2.08400000	          0.08356274	          0.09640717	          0.13344694	          0.42359711	          0.41999713	          0.05208007	          0.01152578	          0.49511385	          0.65338241	          0.23118477	          0.03196138	          0.05846652	          0.02914896	          0.16187343	          0.10590230	          0.16802347	
          2.08500000	          0.08375488	          0.09719594	          0.13390573	          0.42728983	          0.41701445	          0.05306288	          0.01167512	          0.49869198	          0.65257362	          0.23102641	          0.03212063	          0.05800909	          0.02931555	          0.16198334	          0.10690233	          0.16832508	
          2.08600000	          0.08393764	          0.09801621	          0.13436138	          0.43131847	          0.41370234	          0.05403582	          0.01187092	          0.50163080	          0.65226077	          0.23073810	          0.03258101	          0.05756840	          0.02950987	          0.16206186	          0.10797679	          0.16872843	
          2.08700000	          0.08411079	          0.09886406	          0.13481384	          0.43567656	          0.41009670	          0.05500013	          0.01211627	          0.50392452	          0.65245245	          0.23031842	          0.03331825	          0.05714724	          0.02972998	          0.16210852	          0.10911608	          0.16923195	
          2.08800000	          0.08427474	          0.09973522	          0.13526285	          0.44035409	          0.40623260	          0.05595678	          0.01241492	          0.50557008	          0.65315633	          0.22976596	          0.03430795	          0.05674867	          0.02997384	          0.16212216	          0.11030920	          0.16983302	
          2.08900000	          0.08443019	          0.10062501	          0.13570859	          0.44533872	          0.40214578	          0.05690642	          0.01277051	          0.50656679	          0.65437899	          0.22907991	          0.03552586	          0.05637595	          0.03023917	          0.16210076	          0.11154416	          0.17052983	
          2.09000000	          0.08457779	          0.10152852	          0.13615224	          0.45061523	          0.39787433	          0.05784945	          0.01318599	          0.50691596	          0.65612301	          0.22826085	          0.03694828	          0.05603235	          0.03052341	          0.16204135	          0.11280839	          0.17132145	
          2.09100000	          0.08471836	          0.10244069	          0.13659574	          0.45616501	          0.39346068	          0.05878603	          0.01366342	          0.50662115	          0.65838305	          0.22731094	          0.03855220	          0.05572070	          0.03082376	          0.16194055	          0.11408932	          0.17220673	
          2.09200000	          0.08485468	          0.10335615	          0.13704165	          0.46196992	          0.38895328	          0.05971595	          0.01420401	          0.50568983	          0.66114402	          0.22623343	          0.04031530	          0.05544301	          0.03113747	          0.16179616	          0.11537476	          0.17318417	
          2.09300000	          0.08499369	          0.10426907	          0.13749331	          0.46801993	          0.38440620	          0.06063833	          0.01480818	          0.50413538	          0.66438107	          0.22503178	          0.04221609	          0.05520044	          0.03146196	          0.16160868	          0.11665308	          0.17425253	
          2.09400000	          0.08514653	          0.10517307	          0.13795423	          0.47431973	          0.37987639	          0.06155162	          0.01547551	          0.50197836	          0.66806005	          0.22370878	          0.04423426	          0.05499320	          0.03179514	          0.16138145	          0.11791344	          0.17541057	
          2.09500000	          0.08532739	          0.10606126	          0.13842723	          0.48088880	          0.37542168	          0.06245358	          0.01620464	          0.49924598	          0.67214039	          0.22226642	          0.04635061	          0.05482067	          0.03213536	          0.16111922	          0.11914604	          0.17665561	
          2.09600000	          0.08555338	          0.10692628	          0.13891401	          0.48775476	          0.37110088	          0.06334147	          0.01699346	          0.49596944	          0.67658253	          0.22070673	          0.04854671	          0.05468164	          0.03248132	          0.16082682	          0.12034255	          0.17798272	
          2.09700000	          0.08584436	          0.10776062	          0.13941528	          0.49494616	          0.36697348	          0.06421227	          0.01783944	          0.49218052	          0.68135800	          0.21903268	          0.05080465	          0.05457477	          0.03283196	          0.16050865	          0.12149584	          0.17938534	
          2.09800000	          0.08622100	          0.10855719	          0.13993153	          0.50248936	          0.36309698	          0.06506284	          0.01873968	          0.48791006	          0.68645278	          0.21724833	          0.05310710	          0.05449858	          0.03318633	          0.16016815	          0.12259962	          0.18085690	
